<svg width="28px" height="28px" viewBox="0 0 28 28" xmlns="http://www.w3.org/2000/svg">
    <g stroke="none" stroke-width="1" fill="none" fill-rule="evenodd">
        <g id="admin_processes">
            <circle stroke="currentColor" cx="14" cy="14" r="13"></circle>
            <g transform="translate(6.000000, 6.000000)" fill="currentColor">
                <path d="M2.5 3.5a.5.5 0 0 1 0-1h11a.5.5 0 0 1 0 1zm2-2a.5.5 0 0 1 0-1h7a.5.5 0 0 1 0 1zM0 13a1.5 1.5 0 0 0 1.5 1.5h13A1.5 1.5 0 0 0 16 13V6a1.5 1.5 0 0 0-1.5-1.5h-13A1.5 1.5 0 0 0 0 6zm1.5.5A.5.5 0 0 1 1 13V6a.5.5 0 0 1 .5-.5h13a.5.5 0 0 1 .5.5v7a.5.5 0 0 1-.5.5z"/>
                <path d="M 9.3156924,8.2072834 V 7.4456313 h -3.117267 a 2.0781776,2.0781776 0 0 0 -1.862047,3.0014077 0.25999721,0.25999721 0 1 1 -0.465512,0.231717 2.597722,2.597722 0 0 1 2.327559,-3.7526689 h 3.117267 V 6.164435 a 0.1298861,0.1298861 0 0 1 0.213013,-0.099753 l 1.2261256,1.0214241 c 0.06235,0.051954 0.06235,0.1475506 0,0.1995051 L 9.5287054,8.3070364 a 0.1298861,0.1298861 0 0 1 -0.213013,-0.09975 m 1.9794646,0.04468 a 0.2597722,0.2597722 0 0 1 0.348095,0.116897 2.597722,2.597722 0 0 1 -2.3275596,3.7526696 h -3.117267 v 0.761652 a 0.1298861,0.1298861 0 0 1 -0.213013,0.09975 l -1.226125,-1.021424 a 0.1298861,0.1298861 0 0 1 0,-0.199505 l 1.226125,-1.021424 a 0.1298861,0.1298861 0 0 1 0.213013,0.09975 v 0.761652 h 3.117267 a 2.0781776,2.0781776 0 0 0 1.8625666,-3.0014076 0.2597722,0.2597722 0 0 1 0.116898,-0.348095 z"
                      style="stroke-width:0.519544"/>
            </g>
        </g>
    </g>
</svg>
