<svg width="16" height="16" fill="currentColor" class="bi bi-arrows-angle-expand" viewBox="0 0 16 16"
     xmlns="http://www.w3.org/2000/svg">
    <path fill-rule="evenodd"
          d="m 7.5759728,8.5397868 c -0.2164707,-0.2142823 -0.5673699,-0.2142823 -0.7838408,0 L 2.2509555,13.03641 V 9.9976762 c 0,-0.7318715 -1.1086857,-0.7318715 -1.1086857,0 v 4.3637888 c 0,0.303153 0.2481877,0.548904 0.5543427,0.548904 h 4.4070257 c 0.7391236,0 0.7391236,-1.097809 0,-1.097809 H 3.0347963 L 7.5759728,9.3159377 c 0.2164055,-0.2143471 0.2164055,-0.5618038 0,-0.7761509 M 8.4033405,7.4823675 c 0.2164709,0.2142824 0.5673699,0.2142824 0.7838409,0 L 13.728358,2.9857428 v 3.0387347 c 0,0.7318721 1.108686,0.7318721 1.108686,0 V 1.6606876 c 0,-0.3031515 -0.248189,-0.5489043 -0.554343,-0.5489043 H 9.8756752 c -0.7391231,0 -0.7391231,1.0978087 0,1.0978087 H 12.944518 L 8.4033405,6.7062167 c -0.2164054,0.214347 -0.2164054,0.5618037 0,0.7761508"/>
</svg>
