<svg width="16" height="16" fill="currentColor" class="bi bi-arrows-angle-contract" viewBox="0 0 16 16"
     xmlns="http://www.w3.org/2000/svg">
    <g>
        <path fill-rule="evenodd"
              d="m 1.3156666,14.777992 c 0.2293307,0.229262 0.6010757,0.229262 0.8304063,0 L 6.9570265,9.9670386 v 3.2511524 c 0,0.783032 1.1745492,0.783032 1.1745492,0 V 8.5493577 c 0,-0.3243429 -0.2629318,-0.5872746 -0.5872746,-0.5872746 H 2.8754679 c -0.7830323,0 -0.7830323,1.1745495 0,1.1745495 H 6.1266202 L 1.3156666,13.947586 c -0.2292613,0.229331 -0.2292613,0.601076 0,0.830406 M 14.735469,1.2944857 c -0.229331,-0.2292614 -0.601075,-0.2292614 -0.830406,0 L 9.0941089,6.1054393 V 2.8542871 c 0,-0.7830325 -1.1745492,-0.7830325 -1.1745492,0 v 4.6688331 c 0,0.3243427 0.2629317,0.5872746 0.5872746,0.5872746 h 4.6688337 c 0.783032,0 0.783032,-1.1745492 0,-1.1745492 H 9.9245152 L 14.735469,2.124892 c 0.229262,-0.2293307 0.229262,-0.6010757 0,-0.8304063"
        />
    </g>
</svg>
